<?xml version="1.0" encoding="UTF-8" standalone="no"?>
<svg
   xmlns:dc="http://purl.org/dc/elements/1.1/"
   xmlns:cc="http://creativecommons.org/ns#"
   xmlns:rdf="http://www.w3.org/1999/02/22-rdf-syntax-ns#"
   xmlns:svg="http://www.w3.org/2000/svg"
   xmlns="http://www.w3.org/2000/svg"
   height="89.599998"
   width="134.39999"
   xml:space="preserve"
   viewBox="0 0 126 84.000004"
   y="0px"
   x="0px"
   id="Calque_1"
   version="1.1"><metadata
     id="metadata87"><rdf:RDF><cc:Work
         rdf:about=""><dc:format>image/svg+xml</dc:format><dc:type
           rdf:resource="http://purl.org/dc/dcmitype/StillImage" /><dc:title></dc:title></cc:Work></rdf:RDF></metadata><defs
     id="defs85" /><style
     id="style3"
     type="text/css">
	.st0{fill:#0076BD;}
	.st1{fill:#051E5B;}
	.st2{fill:url(#SVGID_1_);}
	.st3{fill:url(#SVGID_2_);}
</style><path
     style="fill:#0076bd;stroke-width:0.09926046"
     id="path9"
     d="m 77.266765,79.921796 c -0.873492,0 -1.518684,-0.416894 -2.024913,-0.962826 v 0.75438 H 73.951466 V 66.660598 l 1.290386,-0.75438 v 4.714872 c 0.516154,-0.565785 1.230829,-1.062086 2.163878,-1.062086 1.816467,0 2.818997,1.766835 2.818997,5.092061 0,3.41456 -1.101791,5.270731 -2.957962,5.270731 z m -0.14889,-9.191519 c -0.724602,0 -1.359869,0.397041 -1.876023,0.982678 v 6.005259 c 0.496302,0.605488 1.141495,1.022382 1.955431,1.022382 1.250682,0 1.746985,-1.588167 1.746985,-4.069679 -0.0099,-2.670107 -0.615416,-3.94064 -1.826393,-3.94064 z"
     class="st0" /><path
     style="fill:#0076bd;stroke-width:0.09926046"
     id="path11"
     d="m 86.617105,79.71335 v -0.833789 c -0.54594,0.565785 -1.27054,1.042235 -2.23336,1.042235 -1.41943,0 -2.50137,-0.982679 -2.50137,-3.255743 0,-2.233361 1.27054,-3.235891 2.95796,-3.235891 0.72461,0 1.34995,0.188595 1.77677,0.456598 v -1.399572 c 0,-1.191127 -0.49631,-1.746985 -1.53854,-1.746985 -0.7246,0 -1.33009,0.287855 -2.02491,0.813935 l -0.58564,-0.982678 c 0.81394,-0.625341 1.68743,-1.002531 2.70981,-1.002531 1.68743,0 2.72966,0.684897 2.72966,2.78922 v 7.365126 h -1.29038 z m 0,-4.714873 c -0.47645,-0.268003 -0.93305,-0.436746 -1.79662,-0.436746 -1.14149,0 -1.64772,0.75438 -1.64772,2.044765 0,1.330091 0.4963,2.173805 1.43928,2.173805 0.81393,0 1.53853,-0.436746 2.00506,-1.022383 z"
     class="st0" /><path
     style="fill:#0076bd;stroke-width:0.09926046"
     id="path13"
     d="m 95.004615,79.71335 v -6.670305 c 0,-1.627871 -0.49631,-2.312768 -1.60802,-2.312768 -0.79409,0 -1.39958,0.545933 -1.81647,1.151421 v 7.821725 h -1.29039 V 69.76745 h 1.29039 v 0.833788 c 0.43675,-0.545933 1.1415,-1.042234 2.14403,-1.042234 1.68742,0 2.59069,1.121643 2.59069,3.335151 v 6.819195 z"
     class="st0" /><path
     style="fill:#0076bd;stroke-width:0.09926046"
     id="path15"
     d="m 103.18368,79.71335 -2.00506,-5.092063 -1.210988,1.935579 v 3.166409 H 98.677245 V 66.660598 l 1.290387,-0.75438 v 7.841577 c 0,0.307707 0,0.75438 0,1.022382 0.148898,-0.357337 0.436748,-0.873492 0.605498,-1.171273 l 2.25321,-3.831454 h 1.43928 l -2.27307,3.623008 2.58077,6.322892 z"
     class="st0" /><path
     style="fill:#0076bd;stroke-width:0.09926046"
     id="path17"
     d="m 114.79715,79.71335 v -6.670305 c 0,-1.627871 -0.4963,-2.312768 -1.60801,-2.312768 -0.79409,0 -1.39958,0.545933 -1.81648,1.151421 v 7.821725 h -1.29038 V 69.76745 h 1.29038 v 0.833788 c 0.43675,-0.545933 1.1415,-1.042234 2.14403,-1.042234 1.68743,0 2.5907,1.121643 2.5907,3.335151 v 6.819195 z"
     class="st0" /><path
     style="fill:#0076bd;stroke-width:0.09926046"
     id="path19"
     d="m 120.39544,83.37606 -0.39704,-1.022383 c 2.48152,-0.337485 3.10686,-1.191125 3.10686,-3.067148 v -0.416894 c -0.52609,0.565785 -1.25069,1.062087 -2.17381,1.062087 -1.81646,0 -2.79915,-1.766836 -2.79915,-5.092062 0,-3.41456 1.08194,-5.270731 2.93812,-5.270731 0.89334,0 1.51868,0.416894 2.04476,0.962827 v -0.754379 h 1.29038 v 9.032702 c -0.01,2.818997 -1.00252,4.129235 -4.01012,4.565981 z m 2.70982,-11.613474 c -0.49631,-0.60549 -1.15143,-1.022383 -1.95544,-1.022383 -1.25068,0 -1.74698,1.588167 -1.74698,4.069679 0,2.670106 0.60549,3.94064 1.81646,3.94064 0.72461,0 1.34995,-0.397042 1.87603,-0.982678 v -6.005258 z"
     class="st0" /><path
     style="fill:#0076bd;stroke-width:0.09926046"
     id="path21"
     d="m 8.8564524,79.71335 v -6.670305 c 0,-1.627871 -0.496303,-2.312768 -1.60802,-2.312768 -0.794084,0 -1.399573,0.545933 -1.816467,1.151421 v 7.821725 H 4.1415794 V 69.76745 h 1.290386 v 0.833788 c 0.436746,-0.545933 1.141496,-1.042234 2.144026,-1.042234 1.687428,0 2.5906986,1.121643 2.5906986,3.335151 v 6.819195 z"
     class="st0" /><path
     style="fill:#0076bd;stroke-width:0.09926046"
     id="path23"
     d="m 17.243961,79.71335 v -6.670305 c 0,-1.627871 -0.496302,-2.312768 -1.608019,-2.312768 -0.794085,0 -1.399573,0.545933 -1.816467,1.151421 v 7.821725 H 12.529088 V 69.76745 h 1.290387 v 0.833788 c 0.436746,-0.545933 1.141496,-1.042234 2.144026,-1.042234 1.687428,0 2.590698,1.121643 2.590698,3.335151 v 6.819195 z"
     class="st0" /><path
     style="fill:#0076bd;stroke-width:0.09926046"
     id="path25"
     d="m 23.914264,79.921796 c -2.044766,0 -3.374856,-1.776762 -3.374856,-5.17147 0,-3.394709 1.359868,-5.191322 3.41456,-5.191322 2.024914,0 3.374857,1.776762 3.374857,5.151617 0,3.394709 -1.389647,5.211175 -3.414561,5.211175 z m 0,-9.171667 c -1.310238,0 -2.064617,1.290386 -2.064617,3.980345 0,2.689958 0.774231,4.000197 2.08447,4.000197 1.310238,0 2.084469,-1.310239 2.084469,-4.000197 0,-2.689959 -0.794084,-3.980345 -2.104322,-3.980345 z"
     class="st0" /><path
     style="fill:#0076bd;stroke-width:0.09926046"
     id="path27"
     d="m 32.311699,79.71335 h -1.15142 l -2.729663,-9.9459 h 1.349942 l 1.627871,6.759638 c 0.109187,0.476451 0.287856,1.330091 0.337486,1.746985 0.05955,-0.416894 0.248151,-1.270534 0.357338,-1.746985 l 1.627872,-6.759638 h 1.320164 z"
     class="st0" /><path
     style="fill:#0076bd;stroke-width:0.09926046"
     id="path29"
     d="m 40.937434,79.71335 v -0.833789 c -0.545932,0.565785 -1.270534,1.042235 -2.23336,1.042235 -1.419424,0 -2.501364,-0.982679 -2.501364,-3.255743 0,-2.233361 1.270534,-3.235891 2.957962,-3.235891 0.724602,0 1.349942,0.188595 1.776762,0.456598 v -1.399572 c 0,-1.191127 -0.496302,-1.746985 -1.538536,-1.746985 -0.724602,0 -1.330091,0.287855 -2.024914,0.813935 L 36.788347,70.57146 c 0.813936,-0.625341 1.687428,-1.002531 2.709811,-1.002531 1.687428,0 2.729663,0.684897 2.729663,2.78922 v 7.365126 h -1.290387 z m 0,-4.714873 c -0.47645,-0.268003 -0.933048,-0.436746 -1.796614,-0.436746 -1.141495,0 -1.647724,0.75438 -1.647724,2.044765 0,1.330091 0.496303,2.173805 1.439277,2.173805 0.813936,0 1.538538,-0.436746 2.005061,-1.022383 z"
     class="st0" /><path
     style="fill:#0076bd;stroke-width:0.09926046"
     id="path31"
     d="m 47.994854,79.643867 c -0.436746,0.188595 -0.893345,0.287855 -1.478981,0.287855 -1.141496,0 -1.647724,-0.70475 -1.647724,-2.104322 v -6.948232 h -1.022383 v -1.101791 h 1.022383 v -3.106854 l 1.270534,-0.754379 v 3.861233 h 1.915727 v 1.101791 h -1.915727 v 6.809268 c 0,0.724601 0.248151,1.022382 0.754379,1.022382 0.456598,0 0.774233,-0.0794 1.210978,-0.268002 z"
     class="st0" /><path
     style="fill:#0076bd;stroke-width:0.09926046"
     id="path33"
     d="m 56.968,79.71335 h -1.151422 l -2.729662,-9.9459 h 1.349942 l 1.627872,6.759638 c 0.109186,0.476451 0.287855,1.330091 0.337485,1.746985 0.05955,-0.416894 0.248152,-1.270534 0.357338,-1.746985 l 1.627871,-6.759638 h 1.330091 z"
     class="st0" /><path
     style="fill:#0076bd;stroke-width:0.09926046"
     id="path35"
     d="m 67.11242,75.187072 h -5.042432 c 0.09926,2.144026 0.734527,3.543599 1.965358,3.543599 0.794083,0 1.359868,-0.317634 2.044765,-1.121644 l 0.774231,0.833789 c -0.85364,0.962826 -1.727132,1.47898 -2.898405,1.47898 -1.727132,0 -3.166409,-1.627872 -3.166409,-5.17147 0,-3.295448 1.270534,-5.191322 3.216039,-5.191322 2.024913,0 3.106853,1.935578 3.106853,5.111913 0.01985,0.228299 0.01985,0.367264 0,0.516155 z m -3.126705,-4.436943 c -1.042235,0 -1.776762,1.022382 -1.895875,3.275595 h 3.79175 c -0.06948,-1.9058 -0.665046,-3.275595 -1.895875,-3.275595 z"
     class="st0" /><g
     transform="matrix(0.09926047,0,0,0.09926047,0.40938629,0.76157347)"
     id="g37"><path
       id="polygon39"
       d="m 0,795.4 v -92.6 l 13,-7.6 v 100.2 z"
       style="fill:#0076bd" /><path
       id="polygon41"
       d="m 13,657.2 v 15.3 l -13,7.6 v -15.2 z"
       style="fill:#0076bd" /></g><g
     transform="matrix(0.09926047,0,0,0.09926047,0.40938629,0.76157347)"
     id="g43"><path
       id="polygon45"
       d="m 499.7,795.4 v -92.6 l 13,-7.6 v 100.2 z"
       style="fill:#0076bd" /><path
       id="polygon47"
       d="m 512.7,657.2 v 15.3 l -13,7.6 v -15.2 z"
       style="fill:#0076bd" /></g><g
     transform="matrix(0.09926047,0,0,0.09926047,0.40938629,0.76157347)"
     id="g49"><path
       id="polygon51"
       d="m 1067.4,795.4 v -92.6 l 13,-7.6 v 100.2 z"
       style="fill:#0076bd" /><path
       id="polygon53"
       d="m 1080.4,657.2 v 15.3 l -13,7.6 v -15.2 z"
       style="fill:#0076bd" /></g><path
     style="fill:#051e5b;stroke-width:0.09926046"
     id="path57"
     d="M 31.577172,35.989113 C 31.567246,29.4677 25.373394,26.589147 18.335826,26.579221 H 0.40938629 V 57.578265 H 7.0499114 V 45.607452 h 8.4569916 l 7.940837,11.970813 h 7.811799 L 23.010994,45.101224 c 5.221101,-1.131569 8.58603,-4.238422 8.566178,-9.112111 M 6.6727214,40.952137 v -9.7176 H 18.335826 c 4.059753,0 6.809268,1.727132 6.809268,4.883615 0,3.285521 -2.799145,4.833985 -6.809268,4.833985 z"
     class="st1" /><path
     style="fill:#051e5b;stroke-width:0.09926046"
     id="path61"
     d="M 76.184826,57.578265 V 45.359301 L 61.911171,26.579221 h 7.73239 l 6.144224,8.496696 c 1.171273,1.637798 2.838849,4.149088 3.692489,5.518882 0.843714,-1.349942 2.481511,-3.771898 3.692491,-5.479178 l 6.19385,-8.5364 h 7.62321 l -14.26373,18.78008 v 12.218964 z"
     class="st1" /><path
     id="polygon63"
     d="m 105.49644,52.386942 h 18.8992 v 5.191323 H 98.746725 V 26.579221 h 6.749715 z"
     style="fill:#051e5b;stroke-width:0.09926046" /><g
     transform="matrix(0.09926047,0,0,0.09926047,0.40938629,0.76157347)"
     id="g65"><linearGradient
       id="SVGID_1_"
       gradientUnits="userSpaceOnUse"
       x1="1104.41"
       y1="90.537697"
       x2="1267.2651"
       y2="20.063999"><stop
         offset="0"
         style="stop-color:#1DBBEA"
         id="stop68" /><stop
         offset="1"
         style="stop-color:#0076BD"
         id="stop70" /></linearGradient><path
       class="st2"
       d="m 1189.9,104 c 0.1,0 0.1,0.1 0.2,0.1 35.5,-25.3 59.1,-63 68.5,-104.1 h -61.9 c -9,27.1 -28.2,50.5 -56.8,63.4 -13.7,6.1 -28.4,9.1 -43.1,9.6 21.7,0.7 43.6,5.3 64.3,14.6 10.3,4.5 19.9,10.1 28.8,16.4 z"
       id="path72"
       style="fill:url(#SVGID_1_)" /><path
       class="st1"
       d="m 1190.1,104.1 c -0.1,0 -0.1,0.1 -0.2,0.1 -8.9,6.3 -18.4,11.9 -28.8,16.4 -20.8,9.3 -42.6,13.9 -64.3,14.6 14.7,0.4 29.3,3.5 43.1,9.6 28.6,12.8 47.8,36.3 56.8,63.4 h 61.9 c -9.4,-41 -33,-78.8 -68.5,-104.1 z"
       id="path74"
       style="fill:#051e5b" /><linearGradient
       id="SVGID_2_"
       gradientUnits="userSpaceOnUse"
       x1="1150.9314"
       y1="130.7106"
       x2="1106.964"
       y2="66.014397"><stop
         offset="0"
         style="stop-color:#1DBBEA"
         id="stop77" /><stop
         offset="1"
         style="stop-color:#051E5B"
         id="stop79" /></linearGradient><path
       class="st3"
       d="m 1189.9,104.2 c 0.1,0 0.1,-0.1 0.2,-0.1 -0.1,0 -0.1,-0.1 -0.2,-0.1 -8.9,-6.3 -18.4,-11.8 -28.8,-16.4 -20.8,-9.3 -42.6,-14 -64.3,-14.6 v 0.2 61.8 0.2 c 21.7,-0.7 43.6,-5.3 64.3,-14.6 10.3,-4.5 19.9,-10.1 28.8,-16.4 z"
       id="path81"
       style="fill:url(#SVGID_2_)" /></g><path
     style="fill:#051e5b;stroke-width:0.09926046"
     d="M 60.233669,31.730839 H 41.513145 v 6.739786 h 15.534263 v 5.141692 H 41.513145 v 8.81433 h 18.720524 v 5.151618 H 34.753507 V 26.579221 h 25.480162 z"
     id="polygon59" /></svg>